<svg width="24" height="25" viewBox="0 0 24 25" fill="none" xmlns="http://www.w3.org/2000/svg">
<path d="M17.0499 20.78C16.0699 21.73 14.9999 21.58 13.9699 21.13C12.8799 20.67 11.8799 20.65 10.7299 21.13C9.28992 21.75 8.52992 21.57 7.66992 20.78C2.78992 15.75 3.50992 8.09 9.04992 7.81C10.3999 7.88 11.3399 8.55 12.1299 8.61C13.3099 8.37 14.4399 7.68 15.6999 7.77C17.2099 7.89 18.3499 8.49 19.0999 9.57C15.9799 11.44 16.7199 15.55 19.5799 16.7C19.0099 18.2 18.2699 19.69 17.0399 20.79L17.0499 20.78ZM12.0299 7.75C11.8799 5.52 13.6899 3.68 15.7699 3.5C16.0599 6.08 13.4299 8 12.0299 7.75Z" fill="black"/>
</svg>
