<svg width="30" height="30" viewBox="0 0 30 30" fill="none" xmlns="http://www.w3.org/2000/svg">
<circle cx="15" cy="15" r="14.5" stroke="#96999C"/>
<path d="M18.7502 21.75H11.2502C8.25024 21.75 7.50024 21 7.50024 18V12C7.50024 9 8.25024 8.25 11.2502 8.25H18.7502C21.7502 8.25 22.5002 9 22.5002 12V18C22.5002 21 21.7502 21.75 18.7502 21.75Z" stroke="#96999C" stroke-linecap="round" stroke-linejoin="round"/>
<path d="M16.5002 12H20.2502" stroke="#96999C" stroke-linecap="round" stroke-linejoin="round"/>
<path d="M17.25 15H20.25" stroke="#96999C" stroke-linecap="round" stroke-linejoin="round"/>
<path d="M18.7502 18H20.2502" stroke="#96999C" stroke-linecap="round" stroke-linejoin="round"/>
<path d="M12.3751 14.4675C13.1248 14.4675 13.7326 13.8597 13.7326 13.11C13.7326 12.3603 13.1248 11.7525 12.3751 11.7525C11.6254 11.7525 11.0176 12.3603 11.0176 13.11C11.0176 13.8597 11.6254 14.4675 12.3751 14.4675Z" stroke="#96999C" stroke-linecap="round" stroke-linejoin="round"/>
<path d="M15.0002 18.2475C14.8952 17.16 14.0327 16.305 12.9452 16.2075C12.5702 16.17 12.1877 16.17 11.8052 16.2075C10.7177 16.3125 9.85524 17.16 9.75024 18.2475" stroke="#96999C" stroke-linecap="round" stroke-linejoin="round"/>
</svg>
