<svg width="80" height="80" viewBox="0 0 80 80" fill="none" xmlns="http://www.w3.org/2000/svg">
<rect width="80" height="80" rx="40" fill="#D0F4DC" fill-opacity="0.4"/>
<g clip-path="url(#clip0_459_698)">
<path fill-rule="evenodd" clip-rule="evenodd" d="M28.3333 24.8333C27.4051 24.8333 26.5148 25.2021 25.8585 25.8585C25.2021 26.5148 24.8333 27.4051 24.8333 28.3333V34.1667H22.5V28.3333C22.5 26.7862 23.1146 25.3025 24.2085 24.2085C25.3025 23.1146 26.7862 22.5 28.3333 22.5H34.1667V24.8333H28.3333ZM51.6667 24.8333H45.8333V22.5H51.6667C53.2138 22.5 54.6975 23.1146 55.7915 24.2085C56.8854 25.3025 57.5 26.7862 57.5 28.3333V34.1667H55.1667V28.3333C55.1667 27.4051 54.7979 26.5148 54.1415 25.8585C53.4852 25.2021 52.5949 24.8333 51.6667 24.8333ZM34.1667 36.5H31.8333V34.1667H34.1667V36.5ZM48.1667 36.5H45.8333V34.1667H48.1667V36.5ZM33.9333 42.8C34.6397 43.7418 35.5556 44.5062 36.6086 45.0327C37.6616 45.5592 38.8227 45.8333 40 45.8333C41.1773 45.8333 42.3384 45.5592 43.3914 45.0327C44.4444 44.5062 45.3603 43.7418 46.0667 42.8L47.9333 44.2C43.9667 49.4897 36.0333 49.4897 32.0667 44.2L33.9333 42.8ZM22.5 51.6667V45.8333H24.8333V51.6667C24.8333 52.5949 25.2021 53.4852 25.8585 54.1415C26.5148 54.7979 27.4051 55.1667 28.3333 55.1667H34.1667V57.5H28.3333C26.7862 57.5 25.3025 56.8854 24.2085 55.7915C23.1146 54.6975 22.5 53.2138 22.5 51.6667ZM57.5 45.8333V51.6667C57.5 53.2138 56.8854 54.6975 55.7915 55.7915C54.6975 56.8854 53.2138 57.5 51.6667 57.5H45.8333V55.1667H51.6667C52.5949 55.1667 53.4852 54.7979 54.1415 54.1415C54.7979 53.4852 55.1667 52.5949 55.1667 51.6667V45.8333H57.5Z" fill="#10953B"/>
</g>
<defs>
<clipPath id="clip0_459_698">
<rect width="35" height="35" fill="white" transform="translate(22.5 22.5)"/>
</clipPath>
</defs>
</svg>
