<svg width="86" height="86" viewBox="0 0 86 86" fill="none" xmlns="http://www.w3.org/2000/svg">
<rect width="86" height="86" rx="43" fill="#D0F4DC" fill-opacity="0.4"/>
<path d="M43 18C40.3478 18 37.8043 19.0536 35.9289 20.9289C34.0536 22.8043 33 25.3478 33 28V32H31C29.9391 32 28.9217 32.4214 28.1716 33.1716C27.4214 33.9217 27 34.9391 27 36V56C27 57.0609 27.4214 58.0783 28.1716 58.8284C28.9217 59.5786 29.9391 60 31 60H55C56.0609 60 57.0783 59.5786 57.8284 58.8284C58.5786 58.0783 59 57.0609 59 56V36C59 34.9391 58.5786 33.9217 57.8284 33.1716C57.0783 32.4214 56.0609 32 55 32H53V28C53 26.6868 52.7413 25.3864 52.2388 24.1732C51.7362 22.9599 50.9997 21.8575 50.0711 20.9289C49.1425 20.0003 48.0401 19.2638 46.8268 18.7612C45.6136 18.2587 44.3132 18 43 18ZM43 21.8C46.42 21.8 49.2 24.58 49.2 28V32H36.8V28C36.8 24.58 39.58 21.8 43 21.8ZM43.38 37C45.26 37 46.76 37.42 47.84 38.24C48.92 39.08 49.46 40.2 49.46 41.6C49.46 42.48 49.16 43.26 48.58 44C48 44.72 47.24 45.28 46.32 45.7C45.8 46 45.46 46.3 45.28 46.64C45.1 47 45 47.44 45 48H41C41 47 41.2 46.32 41.58 45.84C42 45.36 42.68 44.8 43.72 44.16C44.24 43.88 44.66 43.52 45 43.08C45.28 42.66 45.44 42.16 45.44 41.6C45.44 41 45.26 40.56 44.9 40.22C44.54 39.86 44 39.7 43.38 39.7C42.84 39.7 42.4 39.84 42 40.12C41.68 40.4 41.48 40.82 41.48 41.38H37.54C37.44 40 38 38.8 39.1 38.08C40.18 37.36 41.6 37 43.38 37ZM41 50H45V54H41V50Z" fill="#10953B"/>
</svg>
