<svg width="86" height="86" viewBox="0 0 86 86" fill="none" xmlns="http://www.w3.org/2000/svg">
<rect width="86" height="86" rx="43" fill="#D0F4DC" fill-opacity="0.4"/>
<path d="M61.5999 43C61.5999 47.6678 59.7456 52.1445 56.445 55.4451C53.1444 58.7457 48.6677 60.6 44 60.6C39.3322 60.6 34.8555 58.7457 31.5549 55.4451C28.2543 52.1445 26.4 47.6678 26.4 43C26.4 38.3322 28.2543 33.8556 31.5549 30.555C34.8555 27.2544 39.3322 25.4001 44 25.4001C45.6719 25.4001 47.2999 25.6421 48.8399 26.0821L52.2939 22.6281C49.6634 21.5447 46.8448 20.9915 44 21.0001C41.1109 21.0001 38.2501 21.5691 35.5809 22.6747C32.9118 23.7803 30.4865 25.4009 28.4436 27.4437C24.3178 31.5695 22 37.1653 22 43C22 48.8348 24.3178 54.4306 28.4436 58.5564C30.4865 60.5993 32.9118 62.2198 35.5809 63.3254C38.2501 64.431 41.1109 65 44 65C49.8347 65 55.4305 62.6822 59.5563 58.5564C63.6821 54.4306 65.9999 48.8348 65.9999 43M35.002 38.7761L31.9 41.9001L41.8 51.8L63.7999 29.8001L60.6979 26.6761L41.8 45.574L35.002 38.7761Z" fill="#10953B"/>
</svg>
