<svg width="345" height="24" viewBox="0 0 345 24" fill="none" xmlns="http://www.w3.org/2000/svg">
<path d="M8.5469 5.15794C8.89747 4.45681 9.89074 4.48602 10.2121 5.15794L12.1402 9.04341L16.4055 9.6569C17.165 9.77376 17.4572 10.7086 16.9021 11.2637L13.8346 14.2727L14.565 18.5087C14.6818 19.2683 13.8638 19.8526 13.1919 19.502L9.39411 17.4863L5.56707 19.502C4.89515 19.8526 4.07715 19.2683 4.19401 18.5087L4.92436 14.2727L1.85689 11.2637C1.30182 10.7086 1.59396 9.77376 2.35353 9.6569L6.64799 9.04341L8.5469 5.15794Z" fill="#FDB52A"/>
<path d="M36.5918 5.15794C36.9424 4.45681 37.9357 4.48602 38.257 5.15794L40.1851 9.04341L44.4504 9.6569C45.21 9.77376 45.5021 10.7086 44.947 11.2637L41.8796 14.2727L42.6099 18.5087C42.7268 19.2683 41.9088 19.8526 41.2368 19.502L37.439 17.4863L33.612 19.502C32.9401 19.8526 32.1221 19.2683 32.2389 18.5087L32.9693 14.2727L29.9018 11.2637C29.3467 10.7086 29.6389 9.77376 30.3984 9.6569L34.6929 9.04341L36.5918 5.15794Z" fill="#FDB52A"/>
<path d="M64.6387 5.15794C64.9893 4.45681 65.9825 4.48602 66.3039 5.15794L68.232 9.04341L72.4973 9.6569C73.2568 9.77376 73.549 10.7086 72.9939 11.2637L69.9264 14.2727L70.6568 18.5087C70.7736 19.2683 69.9556 19.8526 69.2837 19.502L65.4859 17.4863L61.6589 19.502C60.9869 19.8526 60.169 19.2683 60.2858 18.5087L61.0162 14.2727L57.9487 11.2637C57.3936 10.7086 57.6858 9.77376 58.4453 9.6569L62.7398 9.04341L64.6387 5.15794Z" fill="#FDB52A"/>
<path d="M92.6836 5.15794C93.0342 4.45681 94.0275 4.48602 94.3488 5.15794L96.2769 9.04341L100.542 9.6569C101.302 9.77376 101.594 10.7086 101.039 11.2637L97.9714 14.2727L98.7017 18.5087C98.8186 19.2683 98.0006 19.8526 97.3286 19.502L93.5308 17.4863L89.7038 19.502C89.0319 19.8526 88.2139 19.2683 88.3307 18.5087L89.0611 14.2727L85.9936 11.2637C85.4385 10.7086 85.7307 9.77376 86.4902 9.6569L90.7847 9.04341L92.6836 5.15794Z" fill="#FDB52A"/>
<path d="M120.729 5.15794C121.079 4.45681 122.072 4.48602 122.394 5.15794L124.322 9.04341L128.587 9.6569C129.347 9.77376 129.639 10.7086 129.084 11.2637L126.016 14.2727L126.747 18.5087C126.863 19.2683 126.045 19.8526 125.374 19.502L121.576 17.4863L117.749 19.502C117.077 19.8526 116.259 19.2683 116.376 18.5087L117.106 14.2727L114.039 11.2637C113.483 10.7086 113.776 9.77376 114.535 9.6569L118.83 9.04341L120.729 5.15794Z" fill="#FDB52A"/>
</svg>
