<svg width="30" height="30" viewBox="0 0 30 30" fill="none" xmlns="http://www.w3.org/2000/svg">
<circle cx="15" cy="15" r="14.5" stroke="#96999C"/>
<path d="M12.5025 16.5H9C8.175 16.5 7.5 17.175 7.5 18V22.5H12.5025V16.5Z" stroke="#96999C" stroke-miterlimit="10" stroke-linecap="round" stroke-linejoin="round"/>
<path d="M15.9976 13.5H13.9951C13.1701 13.5 12.4951 14.175 12.4951 15V22.5H17.4976V15C17.4976 14.175 16.8301 13.5 15.9976 13.5Z" stroke="#96999C" stroke-miterlimit="10" stroke-linecap="round" stroke-linejoin="round"/>
<path d="M21.0001 18.75H17.4976V22.5H22.5001V20.25C22.5001 19.425 21.8251 18.75 21.0001 18.75Z" stroke="#96999C" stroke-miterlimit="10" stroke-linecap="round" stroke-linejoin="round"/>
<path d="M15.3899 7.55249L15.7874 8.34749C15.8399 8.45999 15.9824 8.56499 16.1024 8.57999L16.8224 8.69999C17.2799 8.77499 17.3924 9.11247 17.0624 9.43497L16.4999 9.99747C16.4024 10.095 16.3499 10.275 16.3799 10.4025L16.5374 11.0925C16.6649 11.64 16.3724 11.85 15.8924 11.565L15.2174 11.1675C15.0974 11.0925 14.8949 11.0925 14.7749 11.1675L14.0999 11.565C13.6199 11.85 13.3274 11.64 13.4549 11.0925L13.6124 10.4025C13.6424 10.275 13.5899 10.0875 13.4924 9.99747L12.9374 9.44248C12.6074 9.11248 12.7124 8.78247 13.1774 8.70747L13.8974 8.58749C14.0174 8.56499 14.1599 8.45999 14.2124 8.35499L14.6099 7.55997C14.8274 7.12497 15.1724 7.12499 15.3899 7.55249Z" stroke="#96999C" stroke-linecap="round" stroke-linejoin="round"/>
</svg>
