<svg width="80" height="80" viewBox="0 0 80 80" fill="none" xmlns="http://www.w3.org/2000/svg">
<g clip-path="url(#clip0_139_147)">
<rect width="80" height="80" rx="40" fill="#F7F7F8"/>
<path d="M33.3039 36.6794C35.7673 38.1344 38.3243 40.0467 40.7596 42.5366C45.7254 47.6539 48.039 53.0942 49.1301 56.2866C47.7439 55.9229 45.8331 55.3437 43.6117 54.4149C40.221 52.974 36.117 50.698 32.1612 47.0747C26.1323 41.5812 23.2115 35.5758 21.8799 32.2491C24.1263 32.7205 28.5129 33.8523 33.3039 36.6794Z" fill="#A8E39C"/>
<path d="M69.5163 55.748C69.7177 55.0471 69.315 54.3072 68.6156 54.0917L63.1924 52.5026C62.4915 52.2996 61.7515 52.7039 61.5361 53.4049C61.3347 54.1042 61.739 54.8457 62.4384 55.0612L67.8616 56.6503C67.9818 56.6894 68.1176 56.7034 68.2378 56.7034C68.817 56.7034 69.3415 56.3272 69.5163 55.748ZM58.8058 23.2806L61.3488 16.6289C61.6048 15.942 61.2676 15.1739 60.5807 14.9179C59.8954 14.6494 59.1273 14.9991 58.8729 15.686L56.3283 22.3377C56.0739 23.0246 56.4095 23.7927 57.0964 24.0487C57.2572 24.1018 57.4195 24.1424 57.5663 24.1424C58.0923 24.1424 58.6028 23.8192 58.8058 23.2806ZM29.1327 21.8944C29.7524 21.5026 29.9273 20.6674 29.537 20.0617L26.6709 15.6048C26.2806 14.985 25.4454 14.8102 24.8397 15.202C24.2215 15.5923 24.0467 16.4259 24.437 17.0316L27.3031 21.4901C27.5576 21.8803 27.9884 22.0958 28.4193 22.0958C28.6612 22.1083 28.9032 22.0411 29.1327 21.8944ZM37.166 50.9664C36.91 50.9664 36.6555 50.8993 36.4261 50.7385C35.8204 50.3342 35.6596 49.499 36.0623 48.8933C37.0724 47.3853 39.2251 44.719 42.199 43.8573C45.7254 42.8473 49.0224 43.8026 52.2117 44.719C53.0719 44.961 53.8805 45.2029 54.7001 45.3918C56.4907 45.8227 58.3749 46.1599 59.9219 45.6619C61.6048 45.1233 63.0441 43.6949 64.2274 42.3618C64.7129 41.8107 65.5606 41.7701 66.0991 42.254C66.6502 42.7395 66.6908 43.5872 66.2069 44.1258C64.78 45.729 63.0176 47.4665 60.729 48.1924C58.5622 48.8793 56.2487 48.489 54.0819 47.9645C53.2077 47.7491 52.3319 47.5055 51.4843 47.2495C48.5245 46.4018 45.7379 45.5932 42.9389 46.3878C41.3513 46.8467 39.656 48.2876 38.2697 50.3467C38.0137 50.751 37.5969 50.9664 37.166 50.9664Z" fill="#73D260"/>
<path d="M56.4229 62.5747C57.1363 62.4139 57.5937 61.6989 57.4314 60.9855L56.6914 57.7135C56.5306 57 55.8172 56.5551 55.1038 56.7034C54.3904 56.8658 53.933 57.5792 54.0938 58.2926L54.8353 61.5647C54.9696 62.1844 55.5206 62.6012 56.1263 62.6012C56.22 62.6153 56.3277 62.6012 56.4229 62.5747ZM70.6865 39.0367C71.158 38.47 71.0909 37.6364 70.5257 37.1649C69.6234 36.3969 68.1029 35.4274 65.9908 35.1043C63.5821 34.7265 61.6166 35.4134 60.6613 35.8583C60.0025 36.1674 59.7059 36.962 60.015 37.6223C60.3256 38.2827 61.1187 38.5777 61.779 38.2686C62.4643 37.9455 63.8646 37.46 65.5865 37.73C67.0804 37.9595 68.1701 38.6589 68.8164 39.2115C69.0583 39.4269 69.3674 39.5206 69.664 39.5206C70.0543 39.5206 70.4305 39.3598 70.6865 39.0367ZM32.1606 48.4078C31.7563 48.4078 31.366 48.233 31.11 47.8974C30.6666 47.3182 30.7743 46.483 31.3519 46.0381C33.9902 43.9915 35.659 41.7295 36.2771 39.3052C37.0171 36.4234 36.2241 33.8648 35.3764 31.1579C34.4616 28.209 33.411 24.8698 34.4616 20.925C35.0938 18.5131 36.3849 16.2792 38.2831 14.2857C38.7936 13.7596 39.6288 13.7331 40.1533 14.2451C40.6778 14.7571 40.7044 15.5923 40.1939 16.1168C38.6063 17.7872 37.5291 19.6324 37.0171 21.5978C36.1694 24.8027 37.0171 27.5096 37.9054 30.3633C38.8217 33.3137 39.7771 36.3563 38.8483 39.9655C38.0677 42.9815 36.0898 45.729 32.9677 48.1393C32.7257 48.3282 32.4431 48.4078 32.1606 48.4078Z" fill="#A8E39C"/>
<path d="M23.1708 28.3979C23.3331 27.6845 22.8882 26.971 22.1748 26.8087L18.0301 25.8658C17.3167 25.705 16.6048 26.1484 16.4425 26.8633C16.2817 27.5767 16.725 28.2902 17.4385 28.4525L21.5831 29.3938C21.6768 29.4219 21.7845 29.4219 21.8797 29.4219C22.4854 29.4219 23.0365 29.0036 23.1708 28.3979ZM32.161 47.0887C30.4251 45.5136 28.9577 43.8979 27.7057 42.3212C26.6567 40.988 25.7543 39.6829 25.0019 38.4575C23.5079 36.0191 22.512 33.8382 21.8797 32.2756L15.0297 49.6879L13.3078 54.0636L3 80.3226L7.42567 78.02L11.2082 76.0546L30.2768 66.1168L34.448 63.9484L49.13 56.2991C45.6035 55.3703 38.7145 53.0536 32.161 47.0887ZM46.7337 24.1424C46.3169 24.1424 45.9001 23.941 45.6441 23.5632C45.2273 22.9575 45.3756 22.1364 45.9797 21.7196C46.5464 21.3293 47.9046 20.2116 48.3089 18.2446C48.618 16.7366 48.2012 15.4846 47.9186 14.8648C47.622 14.192 47.9186 13.4099 48.5914 13.1149C49.2643 12.8183 50.0448 13.1149 50.3398 13.7877C50.7442 14.69 51.3639 16.5477 50.905 18.7832C50.3133 21.6915 48.3214 23.3353 47.4877 23.9144C47.2583 24.0612 46.9898 24.1424 46.7337 24.1424Z" fill="#73D260"/>
<path d="M32.1608 62.2515C30.8417 62.2515 29.7646 63.3146 29.7646 64.6478C29.7646 65.2004 29.9534 65.7125 30.2625 66.1168L34.4338 63.9484C34.1387 62.965 33.2239 62.2515 32.1608 62.2515ZM15.0295 49.688L13.3076 54.0637C13.6713 54.2931 14.0882 54.4149 14.5456 54.4149C15.8647 54.4149 16.9403 53.3503 16.9403 52.0171C16.9403 50.8728 16.1191 49.9034 15.0295 49.688ZM39.2388 54.6975C37.9196 54.6975 36.8425 55.7746 36.8425 57.0937C36.8425 58.4144 37.9056 59.4916 39.2388 59.4916C40.5579 59.4916 41.6335 58.4269 41.6335 57.0937C41.6335 55.7746 40.5704 54.6975 39.2388 54.6975ZM19.8064 59.8678C18.4873 59.8678 17.4117 60.9324 17.4117 62.2656C17.4117 63.5847 18.4748 64.6619 19.8064 64.6619C21.1396 64.6619 22.2027 63.5988 22.2027 62.2656C22.2027 60.9324 21.1255 59.8678 19.8064 59.8678ZM8.81169 73.6849C7.49414 73.6849 6.41699 74.748 6.41699 76.0812C6.41699 76.8898 6.80726 77.5892 7.41296 78.0341L11.208 76.0546C11.1939 74.734 10.1308 73.6849 8.81169 73.6849ZM25.0017 38.4435C24.2211 38.8337 23.6826 39.6424 23.6826 40.5853C23.6826 41.9044 24.7457 42.9815 26.0773 42.9815C26.7095 42.9815 27.3027 42.7255 27.7195 42.3212C26.6564 40.988 25.7541 39.683 25.0017 38.4435ZM64.5377 27.8328C62.7471 27.1319 59.1004 26.1484 54.8621 27.3067C49.4123 28.8022 46.5587 32.8283 45.5893 34.4986C45.213 35.1308 45.4285 35.9395 46.0607 36.3157C46.2761 36.4375 46.5056 36.5046 46.7335 36.5046C47.1909 36.5046 47.6358 36.2626 47.8778 35.8443C48.6849 34.458 51.053 31.1189 55.5615 29.8794C59.0598 28.9099 62.0883 29.7451 63.5682 30.3102C64.2551 30.5803 65.0216 30.229 65.2901 29.5562C65.5602 28.8834 65.223 28.1013 64.5377 27.8328Z" fill="#A8E39C"/>
<path d="M56.2749 61.5912C56.3685 61.5647 56.4232 61.4835 56.3951 61.3898L55.5755 57.8883C55.5474 57.7947 55.4678 57.74 55.3726 57.7681C55.2789 57.7947 55.2258 57.8758 55.2524 57.9695L56.0735 61.471C56.086 61.5506 56.1531 61.6053 56.2343 61.6053C56.2483 61.5912 56.2608 61.5912 56.2749 61.5912ZM28.5407 21.0046C28.6203 20.9515 28.6484 20.8579 28.5937 20.7767L25.687 16.1575C25.6339 16.0763 25.5387 16.0638 25.4591 16.1044C25.3779 16.1575 25.3514 16.2511 25.4045 16.3323L28.3112 20.9515C28.3377 21.0046 28.3924 21.0327 28.4454 21.0327C28.486 21.0187 28.5126 21.0187 28.5407 21.0046ZM46.5587 35.0778C47.4064 33.69 49.8822 30.3102 54.5124 28.8288C58.9927 27.3754 62.8954 28.5728 64.3628 29.1394C64.4425 29.166 64.5377 29.1254 64.5783 29.0442C64.6173 28.963 64.5642 28.8553 64.483 28.8288C62.6269 28.1013 58.8319 27.0788 54.4172 28.5056C49.6949 30.0277 47.1503 33.4886 46.2761 34.9014C46.2231 34.9826 46.2496 35.0778 46.3308 35.1309C46.3573 35.1449 46.3838 35.1574 46.4104 35.1574C46.465 35.1574 46.5181 35.1309 46.5587 35.0778ZM33.2629 48.0582C33.3176 47.9911 33.3176 47.8833 33.2505 47.8303C30.7465 45.6619 28.5001 43.197 26.5893 40.5041C25.1765 38.5247 23.9386 36.3969 22.902 34.188C22.8614 34.1084 22.7678 34.0678 22.6866 34.1084C22.6054 34.1474 22.5648 34.2426 22.6054 34.3238C23.656 36.5452 24.894 38.6854 26.3192 40.693C28.2441 43.4124 30.5045 45.9039 33.035 48.0722C33.0616 48.0988 33.1022 48.1128 33.1427 48.1128C33.1833 48.1128 33.2364 48.0988 33.2629 48.0582ZM37.4217 58.6564C37.5028 58.6017 37.5153 58.494 37.4623 58.4269C36.7488 57.4309 36.9502 56.0306 37.9197 55.3172C38.3911 54.966 39.0093 54.8177 39.615 54.9254C40.2347 55.0331 40.7718 55.3843 41.123 55.9089C41.1761 55.9901 41.2697 56.0041 41.3509 55.9495C41.4321 55.8964 41.4446 55.8012 41.3915 55.72C40.9872 55.1143 40.3815 54.724 39.6696 54.6022C38.9827 54.482 38.2693 54.6428 37.7183 55.0472C36.6146 55.8683 36.3726 57.4715 37.1922 58.6158C37.2203 58.6564 37.2734 58.6829 37.328 58.6829C37.3545 58.6829 37.3951 58.6689 37.4217 58.6564ZM6.61837 77.0241C6.69955 76.9975 6.75419 76.9023 6.72609 76.8087C6.40451 75.8111 6.78073 74.7215 7.64245 74.1829C8.42299 73.6974 9.4455 73.7521 10.1855 74.3172C10.2526 74.3702 10.3603 74.3578 10.4149 74.2906C10.468 74.2235 10.454 74.1158 10.3868 74.0611C9.52667 73.4149 8.35586 73.3477 7.4676 73.9128C6.47163 74.5326 6.04077 75.7721 6.41699 76.9289C6.44509 76.9975 6.51222 77.0506 6.57935 77.0506C6.57935 77.0241 6.59184 77.0241 6.61837 77.0241ZM19.8064 64.8102C19.7127 64.8102 19.6456 64.729 19.6456 64.6478C19.6456 64.5542 19.7268 64.487 19.8064 64.487C21.0319 64.487 22.0278 63.4911 22.0278 62.2656C22.0278 61.0402 21.0319 60.0426 19.8064 60.0426C19.7127 60.0426 19.6456 59.963 19.6456 59.8818C19.6456 59.8007 19.7268 59.7195 19.8064 59.7195C21.2207 59.7195 22.3635 60.8653 22.3635 62.2781C22.3635 63.6659 21.2207 64.8102 19.8064 64.8102Z" fill="#016FB1"/>
</g>
<defs>
<clipPath id="clip0_139_147">
<rect width="80" height="80" rx="40" fill="white"/>
</clipPath>
</defs>
</svg>
